{
  "accessors": [
    {
      "bufferView": 2,
      "componentType": 5126,
      "count": 12051,
      "max": [
        1.000000238418579,
        1.000000238418579,
        1.000000238418579
      ],
      "min": [
        -1.000000238418579,
        -1.000000238418579,
        -1.000000238418579
      ],
      "type": "VEC3"
    },
    {
      "bufferView": 2,
      "byteOffset": 144612,
      "componentType": 5126,
      "count": 12051,
      "max": [
        1.0,
        1.0,
        1.0
      ],
      "min": [
        -1.0,
        -1.0,
        -1.0
      ],
      "type": "VEC3"
    },
    {
      "bufferView": 1,
      "componentType": 5126,
      "count": 12051,
      "max": [
        0.8750001192092896,
        1.0000001192092896
      ],
      "min": [
        0.1250000149011612,
        0.0
      ],
      "type": "VEC2"
    },
    {
      "bufferView": 0,
      "componentType": 5125,
      "count": 61056,
      "type": "SCALAR"
    },
    {
      "bufferView": 2,
      "byteOffset": 289224,
      "componentType": 5126,
      "count": 11572,
      "max": [
        0.9794756770133972,
        0.9794756770133972,
        0.9794756770133972
      ],
      "min": [
        -0.9794756770133972,
        -0.9794756770133972,
        -0.9794756770133972
      ],
      "type": "VEC3"
    },
    {
      "bufferView": 2,
      "byteOffset": 428088,
      "componentType": 5126,
      "count": 11572,
      "max": [
        1.0,
        1.0,
        1.0
      ],
      "min": [
        -1.0,
        -1.0,
        -1.0
      ],
      "type": "VEC3"
    },
    {
      "bufferView": 1,
      "byteOffset": 96408,
      "componentType": 5126,
      "count": 11572,
      "max": [
        0.8419000506401062,
        0.966900110244751
      ],
      "min": [
        0.15810000896453857,
        0.03310000151395798
      ],
      "type": "VEC2"
    },
    {
      "bufferView": 0,
      "byteOffset": 244224,
      "componentType": 5125,
      "count": 40320,
      "type": "SCALAR"
    },
    {
      "bufferView": 2,
      "byteOffset": 566952,
      "componentType": 5126,
      "count": 12051,
      "max": [
        1.000000238418579,
        1.000000238418579,
        1.000000238418579
      ],
      "min": [
        -1.000000238418579,
        -1.000000238418579,
        -1.000000238418579
      ],
      "type": "VEC3"
    },
    {
      "bufferView": 2,
      "byteOffset": 711564,
      "componentType": 5126,
      "count": 12051,
      "max": [
        1.0,
        1.0,
        1.0
      ],
      "min": [
        -1.0,
        -1.0,
        -1.0
      ],
      "type": "VEC3"
    },
    {
      "bufferView": 1,
      "byteOffset": 188984,
      "componentType": 5126,
      "count": 12051,
      "max": [
        0.8750001192092896,
        1.0000001192092896
      ],
      "min": [
        0.1250000149011612,
        0.0
      ],
      "type": "VEC2"
    },
    {
      "bufferView": 0,
      "byteOffset": 405504,
      "componentType": 5125,
      "count": 61056,
      "type": "SCALAR"
    },
    {
      "bufferView": 2,
      "byteOffset": 856176,
      "componentType": 5126,
      "count": 11572,
      "max": [
        0.9794756770133972,
        0.9794756770133972,
        0.9794756770133972
      ],
      "min": [
        -0.9794756770133972,
        -0.9794756770133972,
        -0.9794756770133972
      ],
      "type": "VEC3"
    },
    {
      "bufferView": 2,
      "byteOffset": 995040,
      "componentType": 5126,
      "count": 11572,
      "max": [
        1.0,
        1.0,
        1.0
      ],
      "min": [
        -1.0,
        -1.0,
        -1.0
      ],
      "type": "VEC3"
    },
    {
      "bufferView": 1,
      "byteOffset": 285392,
      "componentType": 5126,
      "count": 11572,
      "max": [
        0.8419000506401062,
        0.966900110244751
      ],
      "min": [
        0.15810000896453857,
        0.03310000151395798
      ],
      "type": "VEC2"
    },
    {
      "bufferView": 0,
      "byteOffset": 649728,
      "componentType": 5125,
      "count": 40320,
      "type": "SCALAR"
    },
    {
      "bufferView": 2,
      "byteOffset": 1133904,
      "componentType": 5126,
      "count": 12051,
      "max": [
        1.000000238418579,
        1.000000238418579,
        1.000000238418579
      ],
      "min": [
        -1.000000238418579,
        -1.000000238418579,
        -1.000000238418579
      ],
      "type": "VEC3"
    },
    {
      "bufferView": 2,
      "byteOffset": 1278516,
      "componentType": 5126,
      "count": 12051,
      "max": [
        1.0,
        1.0,
        1.0
      ],
      "min": [
        -1.0,
        -1.0,
        -1.0
      ],
      "type": "VEC3"
    },
    {
      "bufferView": 1,
      "byteOffset": 377968,
      "componentType": 5126,
      "count": 12051,
      "max": [
        0.8750001192092896,
        1.0000001192092896
      ],
      "min": [
        0.1250000149011612,
        0.0
      ],
      "type": "VEC2"
    },
    {
      "bufferView": 0,
      "byteOffset": 811008,
      "componentType": 5125,
      "count": 61056,
      "type": "SCALAR"
    },
    {
      "bufferView": 2,
      "byteOffset": 1423128,
      "componentType": 5126,
      "count": 11572,
      "max": [
        0.9794756770133972,
        0.9794756770133972,
        0.9794756770133972
      ],
      "min": [
        -0.9794756770133972,
        -0.9794756770133972,
        -0.9794756770133972
      ],
      "type": "VEC3"
    },
    {
      "bufferView": 2,
      "byteOffset": 1561992,
      "componentType": 5126,
      "count": 11572,
      "max": [
        1.0,
        1.0,
        1.0
      ],
      "min": [
        -1.0,
        -1.0,
        -1.0
      ],
      "type": "VEC3"
    },
    {
      "bufferView": 1,
      "byteOffset": 474376,
      "componentType": 5126,
      "count": 11572,
      "max": [
        0.8419000506401062,
        0.966900110244751
      ],
      "min": [
        0.15810000896453857,
        0.03310000151395798
      ],
      "type": "VEC2"
    },
    {
      "bufferView": 0,
      "byteOffset": 1055232,
      "componentType": 5125,
      "count": 40320,
      "type": "SCALAR"
    }
  ],
  "asset": {
    "extras": {
      "author": "PatelDev (https://sketchfab.com/PatelDev)",
      "license": "CC-BY-4.0 (http://creativecommons.org/licenses/by/4.0/)",
      "source": "https://sketchfab.com/3d-models/dice-1bfcd661012f444e92e1437231cb59eb",
      "title": "Dice"
    },
    "generator": "Sketchfab-10.79.1",
    "version": "2.0"
  },
  "bufferViews": [
    {
      "buffer": 0,
      "byteLength": 1216512,
      "name": "floatBufferViews",
      "target": 34963
    },
    {
      "buffer": 0,
      "byteLength": 566952,
      "byteOffset": 1216512,
      "byteStride": 8,
      "name": "floatBufferViews",
      "target": 34962
    },
    {
      "buffer": 0,
      "byteLength": 1700856,
      "byteOffset": 1783464,
      "byteStride": 12,
      "name": "floatBufferViews",
      "target": 34962
    }
  ],
  "buffers": [
    {
      "byteLength": 3484320,
      "uri": "scene.bin"
    }
  ],
  "materials": [
    {
      "doubleSided": true,
      "name": "Material.001",
      "pbrMetallicRoughness": {
        "baseColorFactor": [
          0.0,
          0.0,
          0.0,
          1.0
        ],
        "metallicFactor": 0.0,
        "roughnessFactor": 0.30000000000000004
      }
    },
    {
      "doubleSided": true,
      "name": "Material.002",
      "pbrMetallicRoughness": {
        "baseColorFactor": [
          0.593,
          0.593,
          0.593,
          1.0
        ],
        "metallicFactor": 0.0,
        "roughnessFactor": 0.30000000000000004
      }
    },
    {
      "doubleSided": true,
      "name": "Material.004",
      "pbrMetallicRoughness": {
        "baseColorFactor": [
          0.651,
          0.0045531000000000035,
          0.0006509920000000004,
          1.0
        ],
        "metallicFactor": 0.0,
        "roughnessFactor": 0.30000000000000004
      }
    },
    {
      "doubleSided": true,
      "name": "Material.003",
      "pbrMetallicRoughness": {
        "baseColorFactor": [
          0.593,
          0.593,
          0.593,
          1.0
        ],
        "metallicFactor": 0.0,
        "roughnessFactor": 0.30000000000000004
      }
    },
    {
      "doubleSided": true,
      "name": "Material.006",
      "pbrMetallicRoughness": {
        "baseColorFactor": [
          0.593,
          0.593,
          0.593,
          1.0
        ],
        "metallicFactor": 0.0,
        "roughnessFactor": 0.30000000000000004
      }
    },
    {
      "doubleSided": true,
      "name": "Material.005",
      "pbrMetallicRoughness": {
        "baseColorFactor": [
          0.0,
          0.0,
          0.0,
          1.0
        ],
        "metallicFactor": 0.0,
        "roughnessFactor": 0.30000000000000004
      }
    }
  ],
  "meshes": [
    {
      "name": "Object_0",
      "primitives": [
        {
          "attributes": {
            "NORMAL": 1,
            "POSITION": 0,
            "TEXCOORD_0": 2
          },
          "indices": 3,
          "material": 0,
          "mode": 4
        }
      ]
    },
    {
      "name": "Object_1",
      "primitives": [
        {
          "attributes": {
            "NORMAL": 5,
            "POSITION": 4,
            "TEXCOORD_0": 6
          },
          "indices": 7,
          "material": 1,
          "mode": 4
        }
      ]
    },
    {
      "name": "Object_2",
      "primitives": [
        {
          "attributes": {
            "NORMAL": 9,
            "POSITION": 8,
            "TEXCOORD_0": 10
          },
          "indices": 11,
          "material": 2,
          "mode": 4
        }
      ]
    },
    {
      "name": "Object_3",
      "primitives": [
        {
          "attributes": {
            "NORMAL": 13,
            "POSITION": 12,
            "TEXCOORD_0": 14
          },
          "indices": 15,
          "material": 3,
          "mode": 4
        }
      ]
    },
    {
      "name": "Object_4",
      "primitives": [
        {
          "attributes": {
            "NORMAL": 17,
            "POSITION": 16,
            "TEXCOORD_0": 18
          },
          "indices": 19,
          "material": 4,
          "mode": 4
        }
      ]
    },
    {
      "name": "Object_5",
      "primitives": [
        {
          "attributes": {
            "NORMAL": 21,
            "POSITION": 20,
            "TEXCOORD_0": 22
          },
          "indices": 23,
          "material": 5,
          "mode": 4
        }
      ]
    }
  ],
  "nodes": [
    {
      "children": [
        1
      ],
      "matrix": [
        1.0,
        0.0,
        0.0,
        0.0,
        0.0,
        2.220446049250313e-16,
        -1.0,
        0.0,
        0.0,
        1.0,
        2.220446049250313e-16,
        0.0,
        0.0,
        0.0,
        0.0,
        1.0
      ],
      "name": "Sketchfab_model"
    },
    {
      "children": [
        2
      ],
      "name": "root"
    },
    {
      "children": [
        3,
        6,
        9
      ],
      "matrix": [
        1.0,
        0.0,
        0.0,
        0.0,
        0.0,
        2.220446049250313e-16,
        1.0,
        0.0,
        0.0,
        -1.0,
        2.220446049250313e-16,
        0.0,
        0.0,
        0.0,
        0.0,
        1.0
      ],
      "name": "GLTF_SceneRootNode"
    },
    {
      "children": [
        4,
        5
      ],
      "matrix": [
        0.9840534232565152,
        0.0011998554828086538,
        0.1778691106514958,
        0.0,
        -0.1778731575509107,
        0.006637713977971305,
        0.9840310363885968,
        0.0,
        5.075224394912592e-08,
        -0.9999772502912091,
        0.006745287245952247,
        0.0,
        1.5045721530914307,
        1.4034485816955566,
        -0.7283533215522766,
        1.0
      ],
      "name": "Cube_2"
    },
    {
      "mesh": 0,
      "name": "Object_4"
    },
    {
      "mesh": 1,
      "name": "Object_5"
    },
    {
      "children": [
        7,
        8
      ],
      "matrix": [
        1.0,
        0.0,
        0.0,
        0.0,
        0.0,
        0.0,
        -1.0,
        0.0,
        0.0,
        1.0,
        0.0,
        0.0,
        2.7194604873657227,
        1.417861819267273,
        1.408329963684082,
        1.0
      ],
      "name": "Cube.001_3"
    },
    {
      "mesh": 2,
      "name": "Object_7"
    },
    {
      "mesh": 3,
      "name": "Object_8"
    },
    {
      "children": [
        10,
        11
      ],
      "matrix": [
        -1.4397102621188651e-08,
        -0.9999772483111273,
        0.006745580783437732,
        0.0,
        -0.11091112329062175,
        -0.006703961172164874,
        -0.9938077176370762,
        0.0,
        0.993830328944741,
        -0.0007481742498903765,
        -0.11090859977873446,
        0.0,
        4.2243781089782715,
        1.4037749767303467,
        -0.6799759268760681,
        1.0
      ],
      "name": "Cube.002_4"
    },
    {
      "mesh": 4,
      "name": "Object_10"
    },
    {
      "mesh": 5,
      "name": "Object_11"
    }
  ],
  "scene": 0,
  "scenes": [
    {
      "name": "Sketchfab_Scene",
      "nodes": [
        0
      ]
    }
  ]
}
